<?xml version="1.0" encoding="utf-8"?>
<!-- Generator: Adobe Illustrator 26.0.2, SVG Export Plug-In . SVG Version: 6.00 Build 0)  -->
<svg version="1.1" id="Слой_1" xmlns="http://www.w3.org/2000/svg" xmlns:xlink="http://www.w3.org/1999/xlink" x="0px" y="0px"
	 viewBox="0 0 2000 1994.3" style="enable-background:new 0 0 2000 1994.3;" xml:space="preserve">
<style type="text/css">
	.st0{fill:#0079C2;}
	.st1{fill:#FFFFFF;}
</style>
<g>
	<g>
		<path class="st0" d="M17.2,918.8c4.7,2.2,10.1,3.6,16.4,4.3L42,924l2-18.4l-9.5-1c-3.1-0.3-5.9-0.8-8.4-1.4
			c-2.5-0.6-4.4-1.7-5.8-3.3c-1.3-1.5-1.8-3.8-1.5-7c0.3-2.8,1.2-4.9,2.5-6.4c1.5-1.4,3.5-2.3,5.9-2.6c2.6-0.3,5.8-0.3,9.6,0.1
			l45.7,5c3.2,0.3,6,0.9,8.5,1.6c2.5,0.7,4.5,1.9,5.8,3.5c1.4,1.7,1.9,4.2,1.5,7.5c-0.4,3.3-1.4,5.5-3,6.6c-1.5,1.2-3.5,1.8-6,1.8
			c-2.5,0.1-5.2,0-8.1-0.4l-9.1-1l-2,18.4l8.8,1c6.1,0.7,11.5,0.4,16.3-0.8c4.8-1.2,8.6-3.8,11.5-7.7c3-3.8,4.8-9.3,5.6-16.6
			c0.8-7.7,0.1-13.9-2.3-18.7c-2.4-4.6-6.1-8.1-11.2-10.4c-5.1-2.3-11.2-3.9-18.4-4.6l-37.5-4.1c-6.8-0.7-13-0.5-18.5,0.6
			c-5.4,1.2-9.8,3.7-13.3,7.7c-3.5,4.1-5.7,10-6.5,17.7l0,0c-0.8,7.4-0.1,13.4,2.1,17.7C9.2,913.3,12.6,916.6,17.2,918.8z"/>
		<polygon class="st0" points="91.6,986.7 105.9,987.3 108.1,934.6 93.9,934 93.2,950.8 1.7,946.9 0.8,966.2 92.4,970.1 		"/>
		<path class="st0" d="M47.7,1024.4c0.1,5.7,1.2,10.7,3.2,14.8c2,4.2,5.1,7.5,9.4,9.7c4.3,2.3,9.9,3.3,16.8,3.1
			c6.4-0.1,11.7-1.2,16.1-3.3c4.5-1.9,7.9-4.9,10.1-9c2.3-4,3.3-9.1,3.2-15.5l-0.7-31.1L0,995.7l0.4,19.3l47-1.1L47.7,1024.4z
			 M92.7,1012.9l0.2,7.3c0.1,4-0.4,6.9-1.5,8.8c-1.1,1.9-2.8,3.2-5.3,3.8c-2.3,0.7-5.4,1-9.3,1.1c-3.7,0.1-6.8-0.2-9-1
			c-2.2-0.6-3.8-2-4.9-3.9c-1-1.9-1.5-4.6-1.6-8.1l-0.2-7.3L92.7,1012.9z"/>
		<path class="st0" d="M22.6,1122.5c5.4,1.5,11.6,1.9,18.6,1.2l39.5-3.9c7.1-0.7,13.1-2.3,17.9-4.8c4.9-2.4,8.5-6,10.8-10.7
			c2.3-4.6,3-10.7,2.3-18.3c-0.7-7.5-2.7-13.3-5.8-17.4c-3.1-4.2-7.3-6.9-12.6-8.3c-5.2-1.4-11.4-1.8-18.5-1.1l-39.4,3.9
			c-7.1,0.7-13.2,2.3-18.2,4.7c-5,2.4-8.7,6-11,10.7c-2.3,4.7-3.1,10.8-2.4,18.2l0,0c0.8,7.6,2.7,13.5,5.9,17.5
			C13,1118.3,17.3,1121.1,22.6,1122.5z M19.3,1088c1.2-1.7,3-2.9,5.4-3.7c2.4-0.7,5-1.2,7.9-1.4l48.5-4.8c2.9-0.3,5.6-0.3,8,0
			c2.4,0.3,4.3,1.1,5.8,2.6c1.5,1.4,2.4,3.7,2.7,6.7c0.3,3.2-0.1,5.6-1.4,7.2c-1.1,1.7-2.9,2.9-5.2,3.7c-2.3,0.8-4.9,1.3-7.9,1.6
			l-48.5,4.8c-2.9,0.3-5.5,0.3-8,0c-2.5-0.3-4.5-1.1-6-2.6c-1.5-1.4-2.4-3.6-2.7-6.8l0,0C17.6,1092.1,18.1,1089.7,19.3,1088z"/>
		<polygon class="st0" points="122.7,1170 51.9,1153.2 117.6,1141.4 114.9,1125.9 10.7,1144.5 12.9,1156.9 84.8,1173.7 18,1185.6 
			20.8,1201.3 125,1182.7 		"/>
		<polygon class="st0" points="125.4,1243.2 139.2,1239.7 126.4,1188.5 112.5,1192 116.6,1208.3 27.8,1230.6 32.5,1249.4 
			121.4,1227.1 		"/>
		<polygon class="st0" points="58.8,1292.3 92.2,1281.7 98.1,1300.5 111,1296.5 105,1277.7 134.1,1268.5 141.6,1292.4 154.6,1288.3 
			141.2,1246 40.3,1277.8 53.7,1320.5 66.4,1316.5 		"/>
		<polygon class="st0" points="55.6,1327.4 55.7,1327.4 55.7,1327.4 		"/>
		<path class="st0" d="M161.6,1307.4l-49.2,15.9c-7.3,2.3-13.4,4.1-18.2,5.4c-4.8,1.3-8.7,2.2-11.8,2.6c-3,0.3-5.3,0.2-7.1-0.4
			c-1.7-0.5-3.1-1.5-4.2-3c-0.8-1.4-1.7-3.3-2.6-5.6l-12.8,5.1c1.9,5.8,4.1,10.4,6.4,13.7c2.5,3.3,5.3,5.7,8.5,7
			c3.2,1.3,7,1.9,11.3,1.6c4.4-0.2,9.5-1.2,15.2-2.8c5.8-1.5,12.3-3.5,19.7-5.9l37.5-12.4l5.6,14.1l-84.9,33.7l7.1,17.9l98.4-39.1
			L161.6,1307.4z"/>
		<path class="st0" d="M128.5,1453.9c4.2-0.4,9-2,14.4-4.6c6.8-3.3,11.7-7.1,14.6-11.2c3-4.2,4.3-8.9,3.9-14c-0.3-5.2-2-11-5.2-17.4
			l-2.1-4.2l39.9-19.6l-8.5-17.2l-95,46.7l10.2,20.8c2.3,4.6,4.7,8.5,7.4,11.8c2.7,3.3,5.7,5.7,9.1,7.2
			C120.5,1453.7,124.3,1454.3,128.5,1453.9z M117.7,1434.6c-1.9-1.5-3.7-3.9-5.3-7.3l-1.7-3.5l31.3-15.4l1.6,3.3
			c2.7,5.5,3.2,9.8,1.5,12.9c-1.6,3.2-4.9,6.1-9.8,8.6c-4.1,2-7.7,3.2-10.5,3.4C122,1436.8,119.7,1436.2,117.7,1434.6z"/>
		<polygon class="st0" points="234.6,1458 196.4,1480.5 185.5,1461.9 223.7,1439.4 213.9,1422.9 122.7,1476.6 132.5,1493.2 
			173.7,1468.9 184.6,1487.4 143.4,1511.7 153.2,1528.4 244.4,1474.7 		"/>
		<path class="st0" d="M259.8,1497.2l-99,43.1l10.4,14.9l22.5-10.4l10.5,15.1l-17.7,17.4l10.2,14.7l74.8-77.8L259.8,1497.2z
			 M213.1,1551.2l-8.2-11.8l40.6-19.5L213.1,1551.2z"/>
		<path class="st0" d="M309.1,1563.1c-4.9-6.1-9.9-10.4-14.8-13c-4.9-2.5-9.9-3.4-15-2.5c-5,0.8-10.3,3.5-15.7,7.9
			c-5.4,4.4-9.1,9.2-11.1,14.3c-1.9,5.1-2.4,10-1.4,14.8l-50.1,13.4l13.3,16.3l43.9-14c0.1,0.1,0.3,0.5,0.7,0.9
			c0.4,0.5,0.7,0.8,0.7,0.9l3.9,4.8l-33.2,27l12.1,14.9l82.1-66.8L309.1,1563.1z M274.1,1598.3l-2.7-3.3l0,0
			c-4.1-5.1-5.7-9.7-4.8-13.8c1-4,3.8-8,8.5-11.8c4.5-3.7,8.7-5.3,12.7-4.7c4,0.5,7.8,2.9,11.3,7.3l3,3.6L274.1,1598.3z"/>
		<polygon class="st0" points="376.9,1656.9 387,1646.8 349.6,1609.5 339.5,1619.6 351.5,1631.5 286.8,1696.4 300.5,1710 
			365.2,1645.2 		"/>
		<polygon class="st0" points="345.1,1733.3 368.3,1707.1 383.1,1720.1 392,1710.1 377.2,1697 397.4,1674.2 416.2,1690.8 
			425.2,1680.6 391.9,1651.2 321.8,1730.4 355.2,1760.1 364,1750.1 		"/>
		<polygon class="st0" points="474.3,1719.2 461.1,1708.9 431.5,1727.4 440.8,1693.1 426.6,1682 412.4,1733.9 361.1,1765.2 
			374.2,1775.4 406.3,1755.4 396.4,1792.6 410.6,1803.7 425.5,1748.8 		"/>
		<polygon class="st0" points="513.4,1745.4 488.9,1782.3 470.9,1770.3 495.4,1733.4 479.4,1722.8 420.9,1811 436.9,1821.6 
			463.3,1781.8 481.3,1793.7 454.8,1833.5 471,1844.2 529.5,1756.1 		"/>
		<polygon class="st0" points="578.4,1783.6 520.6,1828 553,1769.6 539.2,1761.9 487.8,1854.5 498.9,1860.6 557.3,1815.4 
			524.4,1874.7 538.4,1882.5 589.7,1789.9 		"/>
		<polygon class="st0" points="636.8,1811.9 602.7,1845.2 599.1,1843.5 617.6,1803.1 600.2,1795.1 556.1,1891.4 573.5,1899.4 
			593.8,1855 597.4,1856.7 593.7,1908.6 611.5,1916.8 615.1,1856.9 654.2,1819.9 		"/>
		<path class="st0" d="M618.4,1919.5l17,6.3l12.6-21.4l17.3,6.4l-4.6,24.4l16.8,6.2l17.1-106.6l-19.4-7.2L618.4,1919.5z
			 M667.5,1898.6l-13.5-5l22.2-39.1L667.5,1898.6z"/>
		<path class="st0" d="M799.7,1879.2c-0.6-4.9-2.6-9-6-12.4c-3.3-3.5-8.6-6.1-15.7-7.9c-7.5-1.9-13.8-2-18.8-0.3
			c-4.9,1.7-8.9,4.9-11.9,9.7c-3,4.7-5.4,10.6-7.2,17.6l-9.3,36.6c-1.7,6.7-2.3,12.8-2,18.4c0.3,5.5,2.2,10.3,5.7,14.3
			c3.6,4,9.1,7,16.6,8.9l0.1,0c7.3,1.8,13.2,2,17.8,0.3c4.7-1.7,8.5-4.6,11.3-8.9c2.8-4.3,5-9.5,6.5-15.6l2.1-8.2l-18-4.6l-2.3,9.2
			c-0.8,3-1.6,5.7-2.6,8.1c-1,2.4-2.3,4.1-4,5.3c-1.6,1.1-4,1.3-7.1,0.5c-2.7-0.7-4.7-1.8-6-3.4c-1.2-1.6-1.8-3.7-1.8-6.2
			c0-2.6,0.5-5.8,1.5-9.5l11.3-44.6c0.8-3.1,1.7-5.9,2.7-8.2c1.1-2.4,2.5-4.2,4.3-5.2c1.9-1.1,4.5-1.3,7.7-0.5
			c3.2,0.8,5.2,2.1,6.2,3.9c1,1.7,1.3,3.8,1,6.2c-0.3,2.5-0.8,5.1-1.5,8l-2.2,8.9l18,4.6l2.2-8.6
			C799.8,1889.6,800.2,1884.1,799.7,1879.2z"/>
		<path class="st0" d="M859.4,1879.8c-3.8-3.4-9.5-5.8-17.1-7.1c-7.4-1.3-13.5-1-18.3,0.9c-4.8,1.9-8.6,5.2-11.4,9.9
			c-2.8,4.6-4.8,10.5-6,17.5l-6.8,39c-1.2,7-1.4,13.3-0.4,18.8c1,5.5,3.4,10,7.3,13.5c3.9,3.5,9.5,5.9,16.9,7.2l0,0
			c7.6,1.3,13.7,1,18.5-1c4.9-2.1,8.7-5.5,11.5-10.2c2.9-4.8,4.9-10.7,6.1-17.6l6.8-39.1c1.2-7,1.3-13.2,0.2-18.5
			C865.8,1887.6,863.3,1883.2,859.4,1879.8z M848.1,1903.8l-8.4,48c-0.5,2.8-1.2,5.4-2.1,7.7c-0.9,2.3-2.3,4-4.1,5.1
			c-1.7,1.1-4.1,1.4-7.3,0.8l0.1,0c-3.1-0.5-5.3-1.6-6.6-3.3c-1.3-1.6-2-3.7-2.1-6.2c0-2.5,0.2-5.1,0.7-8l8.4-48
			c0.5-2.9,1.2-5.5,2.1-7.7c0.9-2.2,2.3-3.8,4-4.9c1.8-1.1,4.2-1.4,7.2-0.9c3.2,0.6,5.4,1.6,6.6,3.3c1.3,1.6,1.9,3.6,2.1,6
			C848.8,1898.2,848.6,1900.9,848.1,1903.8z"/>
		<polygon class="st0" points="914.9,1944.2 895.2,1881.6 881.8,1880.3 871.4,1985.6 887.8,1987.3 894,1924.3 913.5,1989.8 
			926.3,1991 936.6,1885.7 920.8,1884.1 		"/>
		<path class="st0" d="M984.4,1937.9l-12.9-12c-2.7-2.5-4.8-4.9-6.2-7.2c-1.4-2.4-2.1-5.4-2-8.9c0.1-2.8,0.9-5.1,2.4-6.9
			c1.6-1.9,3.9-2.8,6.7-2.7c2.8,0.1,4.8,0.9,6.2,2.4c1.4,1.5,2.4,3.6,2.8,6.2c0.5,2.6,0.9,5.6,0.9,8.9l16.5-2.4
			c-0.2-3.8-0.7-7.5-1.5-10.9c-0.9-3.5-2.3-6.6-4.2-9.4c-1.8-2.8-4.4-4.9-7.7-6.5c-3.3-1.7-7.4-2.6-12.3-2.7
			c-8.4-0.2-15.2,1.9-20.2,6.3c-5,4.4-7.6,10.8-7.8,19.1c-0.2,5.8,0.8,10.8,2.9,14.8c2.2,4,5.1,7.6,8.7,11l13,12.1
			c3.4,3.1,6.1,6.1,8.1,9.1c2,3,3,6.8,2.8,11.4c-0.1,2.9-0.8,5.3-2.2,7.1c-1.4,1.8-3.6,2.6-6.7,2.6c-2.8-0.1-5-1-6.7-2.7
			c-1.6-1.8-2.8-4.3-3.6-7.4c-0.7-3.2-1.1-6.8-1.2-10.9l-16.7,2.8c0,7,1,12.9,3.2,17.7c2,4.8,5.2,8.6,9.4,11.2
			c4.2,2.6,9.5,3.9,15.8,4.1l0,0c5.3,0.1,10-0.8,13.9-2.9c4.1-2.2,7.2-5.2,9.5-9c2.4-3.9,3.6-8.3,3.8-13.4c0.2-7-1.2-12.9-4.2-17.9
			C992.3,1946.1,988.7,1941.7,984.4,1937.9z"/>
		<polygon class="st0" points="1056,1885.7 1003.2,1887.7 1003.8,1901.9 1020.6,1901.3 1024,1992.8 1043.3,1992.1 1039.9,1900.6 
			1056.5,1900 		"/>
		<path class="st0" d="M1119.8,1927.7c1.7-2.6,2.7-5.7,3.1-9.1c0.4-3.5,0.4-7.3,0-11.6c-0.8-7-2.7-12.4-5.7-16.2
			c-2.9-3.8-7-6.3-12.1-7.4c-5-1.2-11.1-1.5-18.2-0.7l-25.2,2.7l11.1,105.3l19.2-2l-5.1-48.2l8.8-0.9l17.8,46.9l19.2-2l-20.1-50.3
			C1115.8,1932.4,1118.2,1930.3,1119.8,1927.7z M1104.6,1919.5c-0.7,2.4-2.1,4.3-4.3,5.7c-2.1,1.3-4.9,2.1-8.7,2.5l-6,0.6l-3.4-31.8
			l7-0.7c5.5-0.6,9.3,0.4,11.5,2.9c2.3,2.4,3.7,6.2,4.2,11.5C1105.4,1913.8,1105.2,1917,1104.6,1919.5z"/>
		<path class="st0" d="M1186.9,1867.2l-18.4,3.4l13.4,72.6c0.6,3.3,0.9,6.4,0.9,9.4c0.1,2.9-0.5,5.4-1.7,7.5c-1.1,2-3.4,3.3-6.7,3.9
			c-3.2,0.6-5.7,0.2-7.7-1.2c-1.9-1.5-3.4-3.6-4.2-6.4c-1-2.8-1.7-5.9-2.4-9.1l-13.4-72.6l-18.5,3.4l13,70.4
			c1.4,7.3,3.3,13.4,5.9,18.3c2.6,4.9,6.3,8.4,11.1,10.4c4.8,2,11.1,2.3,18.8,0.9l0,0c7.8-1.4,13.5-4,17.2-7.6
			c3.8-3.6,6-8.2,6.6-13.7c0.7-5.5,0.3-11.9-1-19.2L1186.9,1867.2z"/>
		<path class="st0" d="M1269.3,1914.5l-17.9,4.8l2.4,9.2c0.8,3,1.3,5.8,1.7,8.3c0.3,2.5,0,4.7-0.9,6.6c-0.9,1.8-2.9,3.1-6,3.9
			c-2.7,0.7-5,0.7-6.9-0.1c-1.8-0.9-3.4-2.4-4.6-4.6c-1.2-2.3-2.3-5.3-3.3-9l-11.8-44.5c-0.8-3.1-1.4-5.9-1.6-8.5
			c-0.2-2.6,0.2-4.9,1.2-6.7c1.1-1.9,3.3-3.3,6.5-4.2c3.2-0.9,5.6-0.7,7.3,0.4c1.7,1,3,2.6,3.9,4.9c1,2.3,1.8,4.8,2.6,7.7l2.3,8.8
			l17.9-4.8l-2.3-8.6c-1.6-5.9-3.8-10.8-6.7-14.9c-2.9-4-6.6-6.7-11.3-8c-4.6-1.4-10.4-1.1-17.5,0.7c-7.5,2-13,4.9-16.6,8.9
			c-3.5,3.9-5.4,8.6-5.7,14.2c-0.3,5.6,0.4,11.9,2.3,18.9l9.7,36.5c1.8,6.7,4.2,12.3,7.2,17c3,4.6,7,7.8,12,9.7
			c5.1,1.8,11.4,1.7,18.9-0.3l0,0c7.2-1.9,12.5-4.7,15.8-8.4c3.3-3.8,5.2-8.2,5.5-13.2c0.3-5.1-0.3-10.7-1.9-16.8L1269.3,1914.5z"/>
		<polygon class="st0" points="1309.8,1845.6 1305.3,1832.2 1255.3,1849.1 1259.8,1862.6 1275.8,1857.2 1305.2,1943.9 
			1323.5,1937.7 1294.1,1851 		"/>
		
			<rect x="1331.6" y="1821.7" transform="matrix(0.9301 -0.3674 0.3674 0.9301 -594.9724 623.8649)" class="st0" width="19.1" height="105.8"/>
		<path class="st0" d="M1427.6,1858l-16.7-36c-3-6.5-6.5-11.6-10.4-15.3c-3.9-3.9-8.4-6.1-13.6-6.7c-5.1-0.6-11.1,0.7-18.1,3.9
			c-6.8,3.2-11.6,6.9-14.5,11.2c-2.9,4.3-4.1,9.2-3.7,14.7c0.4,5.4,2.1,11.3,5.1,17.8l16.7,35.9c3,6.5,6.5,11.7,10.4,15.6
			c3.9,3.9,8.5,6.2,13.7,6.9c5.2,0.7,11.2-0.6,18-3.7l0,0c7-3.2,11.8-7,14.6-11.4c2.8-4.5,4-9.5,3.6-14.9
			C1432.2,1870.4,1430.6,1864.4,1427.6,1858z M1413.9,1884.5c-0.8,1.9-2.6,3.5-5.5,4.9l0,0c-2.8,1.3-5.3,1.7-7.3,1.1
			s-3.8-1.9-5.3-3.9c-1.4-2-2.7-4.4-3.9-7l-20.5-44.2c-1.3-2.7-2.1-5.2-2.7-7.6c-0.5-2.4-0.3-4.5,0.5-6.3c0.8-1.9,2.6-3.5,5.4-4.8
			c2.9-1.4,5.3-1.7,7.3-1.1c2,0.5,3.7,1.7,5.2,3.7c1.4,1.9,2.8,4.2,4.1,6.9l20.5,44.2c1.2,2.6,2.1,5.1,2.7,7.6
			C1414.9,1880.4,1414.8,1882.6,1413.9,1884.5z"/>
		<polygon class="st0" points="1439.5,1768.6 1469,1821.3 1417.1,1781.2 1405.3,1787.7 1457,1880.1 1471.4,1872.1 1440.5,1816.9 
			1494,1859.4 1505.2,1853.2 1453.5,1760.8 		"/>
		<polygon class="st0" points="1559.1,1801.9 1539,1773.3 1555.1,1761.9 1547.4,1750.9 1531.2,1762.3 1513.7,1737.3 1534.3,1722.9 
			1526.5,1711.8 1490.1,1737.3 1550.9,1824 1587.5,1798.3 1579.8,1787.4 		"/>
		<path class="st0" d="M1642.9,1761.5c-1.7-0.1-3.4-0.3-5.1-0.5c-1.8-0.2-3.5-0.5-5.1-0.7c1.7-3.5,2.5-7.1,2.4-10.8
			c-0.2-3.7-1.3-7.5-3.1-11.3c-1.8-3.8-4.3-7.6-7.5-11.6l-25-30.9c-4.5-5.6-9.1-9.7-13.7-12.4c-4.7-2.8-9.7-3.8-14.8-3.1
			c-5.2,0.7-10.7,3.5-16.7,8.3c-5.8,4.7-9.6,9.5-11.4,14.4c-1.8,4.9-1.8,9.9,0,15.1c1.7,5.1,4.8,10.5,9.3,16l24.9,30.8
			c4.5,5.6,9.1,9.8,13.9,12.6c4.8,2.9,9.8,4,15,3.4c5.2-0.6,10.7-3.3,16.6-8c0.3-0.3,0.6-0.5,0.9-0.7c0.3-0.3,0.6-0.6,0.8-0.8
			c3,0.9,6.2,1.7,9.7,2.2c3.6,0.6,7,0.9,10.2,1c3.3,0,6.1-0.2,8.4-0.8l-5.1-12.2C1646.1,1761.6,1644.6,1761.6,1642.9,1761.5z
			 M1617.7,1755.5c-0.3,2.1-1.8,4.1-4.3,6.1l0,0c-2.4,2-4.7,2.9-6.8,2.8c-2.1-0.1-4.1-0.9-6.1-2.5c-1.9-1.6-3.7-3.5-5.5-5.8
			l-30.6-37.9c-1.9-2.3-3.4-4.5-4.5-6.6c-1.1-2.2-1.4-4.2-1-6.2c0.3-2.1,1.7-4.1,4.2-6.1c2.5-2,4.8-3,6.9-2.9c2,0,4,0.8,5.9,2.3
			c1.9,1.5,3.7,3.4,5.6,5.7l30.6,37.9c1.8,2.2,3.3,4.5,4.4,6.7S1618.1,1753.4,1617.7,1755.5z"/>
		<path class="st0" d="M1677.9,1675.4l-49.2-52.1l-13.6,12.8l50.7,53.7c2.3,2.4,4.3,4.9,5.9,7.4c1.6,2.4,2.4,4.8,2.6,7.2
			c0.1,2.3-1.1,4.6-3.5,6.9c-2.3,2.2-4.7,3.3-7.1,3.1c-2.4-0.3-4.7-1.3-7-3.1c-2.4-1.9-4.7-4-6.9-6.4l-50.7-53.7l-13.7,12.9
			l49.2,52.1c5.1,5.4,10.1,9.4,14.9,12.2s9.8,3.6,15,2.7c5.1-0.9,10.6-4,16.3-9.4l0.1,0c5.8-5.4,9.2-10.7,10.3-15.7
			c1.2-5.1,0.6-10.1-1.9-15.1C1686.8,1685.9,1683,1680.7,1677.9,1675.4z"/>
		
			<rect x="1672.8" y="1590.3" transform="matrix(0.6856 -0.7279 0.7279 0.6856 -667.2743 1741.2223)" class="st0" width="19.1" height="105.8"/>
		<path class="st0" d="M1724,1605.1c3.7-4.4,6.2-8.8,7.4-13.2c1.4-4.5,1.2-9-0.6-13.5c-1.8-4.5-5.3-9-10.5-13.5
			c-4.9-4.1-9.6-6.8-14.3-8.2c-4.6-1.5-9.2-1.5-13.5,0.1c-4.3,1.5-8.5,4.7-12.6,9.5l-20,23.8l81,68.2l12.5-14.8l-36-30.3
			L1724,1605.1z M1715.7,1591.6c-0.5,2.1-1.9,4.5-4.1,7.1l-4.7,5.6l-24.2-20.4l4.7-5.6c2.6-3.1,4.9-4.9,6.9-5.6
			c2.1-0.7,4.3-0.5,6.5,0.7c2.2,1,4.8,2.8,7.7,5.3c2.9,2.4,4.9,4.6,6.1,6.7C1715.9,1587.3,1716.2,1589.4,1715.7,1591.6z"/>
		<polygon class="st0" points="1731,1498.8 1781.7,1554 1713.2,1523.8 1701.6,1540.1 1786.9,1602.9 1795.3,1591 1735.9,1547.1 
			1805,1577.4 1811.7,1567.9 1760.4,1513.1 1821.3,1554.4 1829.6,1542.7 1742.1,1483 		"/>
		<polygon class="st0" points="1837.6,1503.6 1807.6,1485.5 1817.7,1468.6 1806.2,1461.7 1796,1478.6 1769.9,1462.9 1782.9,1441.4 
			1771.2,1434.4 1748.3,1472.5 1839.1,1527 1862.1,1488.7 1850.7,1481.8 		"/>
		<polygon class="st0" points="1792.9,1392.9 1846.6,1420.4 1781.1,1415.8 1775,1427.8 1869.2,1476.1 1876.7,1461.4 1820.4,1432.6 
			1888.5,1438.4 1894.3,1427 1800.1,1378.7 		"/>
		<polygon class="st0" points="1836.5,1330.5 1823.4,1324.9 1802.6,1373.4 1815.7,1379 1822.3,1363.5 1906.5,1399.6 1914.1,1381.9 
			1830,1345.7 		"/>
		<polygon class="st0" points="1936.7,1257.7 1882.1,1242.3 1892.6,1205.1 1878.5,1201.1 1853.3,1290.1 1867.4,1294.1 1878,1256.9 
			1932.6,1272.3 1919.7,1317.9 1933.8,1322 1963.8,1215.5 1949.7,1211.6 		"/>
		<path class="st0" d="M1930.9,1099.1l0.3-1.9l1.7-11.7l-44.1-6.5l-8,53.7l44.6,6.6l2-13.6l-4.8-0.7l3.9-26.6L1930.9,1099.1z
			 M1896,1121l3.9-26.6l13.6,2l-4,26.6L1896,1121z"/>
		<path class="st0" d="M1983.5,1160.8l10.8-72.6l-13-1.9l-4,27.1l-9.2-1.4l3-20.3l-13.1-2l-3,20.3l-8.7-1.3l3.5-23.7l-13-2l-9,60.9
			l11.3,1.7c-7.2,5.2-13,9.9-17.1,14.3l-6.9-1l2.6-17.4l-13.1-2l-2.6,17.5l-12.1-1.8l-1.6-12c0.2-0.3,0.5-0.6,0.6-1
			c0.3-0.6,0.5-1.4,0.2-2.3c-0.3-0.9-1-1.6-1.7-1.9c-0.7-0.3-1.4-0.3-2.1-0.3l-0.5,0l-12,6.3l0.3,1.5c2.1,9.7,3.4,22.4,3.6,38.2
			l0.1,2.2l14-2.1l-0.2-14.7l9.3,1.4l-2.7,17.9l13.1,1.9l2.4-16.5c11.6,5.5,21.8,13.2,30,24.7l0.9,1.3l13.7-6.6l-1.3-1.8
			c-3.3-5-8.9-9.9-14.6-14.7l42.1,6.2l2.1-13.5l-45.2-6.7l11.2-7.3l-1.5-1.7l-8.9-9.8l-0.4,0.3l3.3-21.9l8.7,1.3l-3.2,21.8l13,1.9
			l3.3-21.8l9.2,1.3l-4.7,31.9L1983.5,1160.8z"/>
		<path class="st0" d="M1990,1036.5l10-7l-0.6-1.6c-7.6-14.9-23.9-22.5-47.8-23l-44.5-0.9l0.3-14.6l78.2,1.5
			c3.1,0.1,5.9-0.7,7.8-2.6c1.9-1.9,2.7-4.7,2.7-7.9l0.3-11.7c0.1-2.6-0.6-5-2.1-6.8c-1.5-1.7-3.7-2.7-6.2-3.2l-13.8-2.5l-5.7,14.1
			l12.8,1.5c0.8,0.2,1.3,0.4,1.5,0.5c0.1,0.2,0.1,0.2,0.2,0.5l-0.1,2.9c0,0.8-0.2,0.9-0.3,1c-0.3,0.2-0.6,0.3-1.6,0.3l-86.8-1.6
			l-0.9,42.1l17.7,0.3l-0.4,17.2l-20-0.4c-0.2-0.4-0.6-0.7-0.7-1c-0.6-0.5-1.3-1.3-2.6-1.1c-1.3,0.2-1.9,1.2-2.2,1.9
			s-0.4,1.4-0.5,2.3l0,0.1l-0.2,11.4l25.9,0.5l-0.4,20.6l13.2,0.2l0.4-18.5c13,2.6,25.7,9.2,37.9,21.6l1,1.1l14.5-8.2l-1.9-1.8
			c-5.9-5.6-13.5-10-21.3-14.2l45.2,0.9l0.3-13.7l-2-0.1L1990,1036.5z M1946.2,1018.8c-4.5,5.5-7.9,11.1-10.6,16.7l-11.6-0.2
			l0.4-17.2l22.1,0.5L1946.2,1018.8z M1960.2,1027.1l2.2-1.9l-13.1-6.6l2.4,0.1c18.5,0.4,29.6,6.2,34.6,17.6l0,0.1l-34.7-0.6
			C1954.4,1032.8,1957.1,1029.8,1960.2,1027.1z"/>
		<path class="st0" d="M1956.5,850.8c-10.6-4.7-21.9-7.8-33.8-9.3c-0.2-0.4-0.3-0.9-0.8-1.1c-0.5-0.5-0.9-1.2-1.9-1.4
			c-1-0.2-2.2,0.4-2.7,1c-0.5,0.6-0.7,1.3-1,2l-3.5,12l2.4,0.2c8.2,0.6,13.8,2.4,19.8,4c-10.3,2.3-20.3,4.4-26.8,5l-2.4-22.2
			l-12.9,1.3l1,8.6l-8.1-5.5l-1.2,1.3c-3.1,3.5-5.6,7.7-7.8,12.7l-0.6,1.5l7.1,5.2l-3.1,0.3c-0.4-0.3-0.7-0.7-1-0.9
			c-0.6-0.4-1.4-0.9-2.5-0.5c-1.2,0.3-1.7,1.4-1.9,2.2c-0.1,0.7-0.1,1.5,0,2.3l1.3,11.2l21.3-2.4l3.9,34.6l13.2-1.5l-3.9-34.7
			c5.8-0.7,14.8-3.2,22.1-4.8l0.6,5l-15.7,1.8c-0.4-0.3-0.7-0.7-1-0.9c-0.6-0.4-1.4-0.9-2.5-0.5c-1.2,0.3-1.7,1.4-1.9,2.2
			c-0.1,0.7-0.1,1.5-0.1,2.3l1.1,9.8l21.4-2.4l0.4,3.4l-15.2,1.7c-0.4-0.3-0.7-0.7-1-0.9c-0.6-0.4-1.4-0.9-2.5-0.5
			c-1.2,0.3-1.7,1.5-1.8,2.2c-0.2,0.8-0.1,1.5-0.1,2.3l1.1,9.7l20.9-2.3l0.7,6.3l0,0.1c-1.7,2.7-3.4,5.7-5,9.9l-12,1.4l-1.2-10.7
			l-13.1,1.5l0.2,1.9l1,8.8l-19.1,2.1c-0.4-0.2-0.6-0.6-0.9-0.9c-0.6-0.4-1.5-0.9-2.6-0.6c-1.2,0.3-1.7,1.5-1.8,2.2
			c-0.2,0.8-0.1,1.4,0,2.3l1.2,11.2l24.8-2.8l1.7,15.5l13.1-1.4l-1.6-14.7c13.2,0.2,26.5,3.8,40,12.4l1.1,0.7l13.5-9.4l-2.4-1.6
			c-5.1-3.4-11.1-5-17-6.9l42.5-4.8l-1.5-13.6l-47.9,5.3c1.4-1.6,2.7-3.2,4.4-4.9l2.4-2.4l-7.3-2l0.7-0.1l-0.7-6.3l9.3-1
			c9.6-1.1,16.4,1.4,21.3,7.1l1.2,1.4l10.8-8.2l-1.3-1.6c-7.5-8.8-17.9-12.7-30.4-11.3l-12.2,1.4l-0.4-3.4l25.8-2.8l-0.6-5
			c2.8,2.8,5.9,3.9,8.5,7.5l1.2,1.6l1.6-1.1l10.7-7.5l-1.2-1.6c-5.5-7.5-13.3-14-22.6-19.8c4.3-3.2,8.1-6.3,10.6-8.9
			c2.9-3.1,4.8-5.7,5.1-8.5c0.2-1.7-0.1-3.4-1.1-4.8c-0.9-1.4-2.4-2.4-4.2-3.1c-4.5-2-10.5-2.9-17.8-2.7l-1.2,0l-6.1,13.1l9.3,0.5
			C1963.2,846.4,1960.6,848.6,1956.5,850.8z M1946.2,875.2l-0.7-6.4c4.6-1.2,7.3-1.3,12.3-2.7c2.8,1.4,5,4.9,7.7,6.9L1946.2,875.2z
			 M1888.6,865.4c1.8-3.3,3.8-6.2,5.9-8.9l0.9,8.1L1888.6,865.4z M1968.9,870.9c0.6,0.5,1.3,1.1,1.9,1.6l-0.1,0
			C1970.1,872,1969.5,871.5,1968.9,870.9z M1972.2,873.9l0-0.2c0.5,0.5,1,1,1.6,1.5C1973.3,874.8,1972.7,874.4,1972.2,873.9z"/>
		<polygon class="st0" points="130.5,782.2 59.7,761.2 135,766.1 138.1,754.9 71.1,720.9 142.5,738.9 146.3,725 43.7,698.8 
			38.6,717.5 105.1,752 30.4,747.1 25.1,766.3 126.7,796.2 		"/>
		<path class="st0" d="M155.2,700.4l-21.4-12.5l6.4-17.3l24.4,4.5l6.2-16.8L64.1,641.6L57,660.9l92,56.5L155.2,700.4z M123,681.8
			l-39.2-22.1l44.2,8.7L123,681.8z"/>
		<polygon class="st0" points="182.1,633.3 98.5,595.9 109,572.5 96,566.7 77.7,607.6 174.3,650.8 		"/>
		<polygon class="st0" points="205.2,585.4 163.1,562.8 173.3,543.8 215.4,566.4 224.6,549.3 131.3,499.3 122.2,516.3 161.2,537.3 
			151,556.3 112,535.3 102.9,552.2 196.1,602.3 		"/>
		<path class="st0" d="M238.7,521.1c1.7,1.4,2.7,3,3.1,4.9c0.3,1.9,0,4.1-1.1,6.6c-1,2.4-2.8,5.3-5.2,8.6l11.3,7.3
			c3.3-4.7,5.8-8.9,7.5-12.4c1.8-3.5,2.9-6.6,3.2-9.4c0.3-2.8,0-5.4-1.2-7.9c-1-2.5-2.6-5-4.9-7.6c-2.1-2.6-4.9-5.6-8.2-8.8
			l-70.2-69.4l-9.8,15.3l33,30.5l23.8,20l-28.6-12.6l-42.2-16.3l-9.7,15.1l91.7,32.3C234.5,518.3,236.9,519.7,238.7,521.1z"/>
		<polygon class="st0" points="274.9,472.7 217.2,426.6 285.1,459.5 292.2,450.2 243,393.5 302.3,437.1 311,425.7 225.9,362.7 
			214.1,378.1 262.7,435.2 195.4,402.4 183.2,418.2 266,484.2 		"/>
		<polygon class="st0" points="349.2,383.6 298.1,330.4 361.1,371.8 369.3,363.6 327.9,300.9 381,351.9 391.2,341.7 315,268.2 
			301.3,281.9 342,344.8 279.6,303.6 265.5,317.7 339,393.9 		"/>
		<path class="st0" d="M411.1,324.8l-12.4-21.5l14.1-11.9l18.9,16l13.7-11.5l-84.3-67.4l-15.8,13.3l51.9,94.6L411.1,324.8z
			 M369.2,254l34.1,29.4l-11,9.3L369.2,254z"/>
		<path class="st0" d="M467.6,279.8l-27.6-38.1l8.5-6.1c4.7-3.4,8.1-7.1,10.4-11.1c2.3-4.1,3.2-8.5,2.7-13.2
			c-0.6-4.8-2.9-10-6.9-15.6c-3.7-5.2-7.7-9-11.8-11.5c-4.1-2.6-8.5-3.7-13.1-3.2c-4.6,0.4-9.4,2.4-14.6,6.2l-25.2,18.2l62,85.8
			L467.6,279.8z M432.1,230.6L413.6,205l5.9-4.3c3.2-2.4,5.9-3.7,8.1-3.7c2.2-0.2,4.3,0.5,6.1,2.2c1.9,1.5,3.9,3.9,6.2,7
			c2.2,3,3.6,5.7,4.3,8c0.7,2.2,0.6,4.3-0.5,6.3c-1,1.9-2.9,3.9-5.7,5.9L432.1,230.6z"/>
		<polygon class="st0" points="517.1,245.8 506.6,172.7 542,230.6 555.6,222.3 500.4,131.9 489.3,138.7 499.4,210.8 464.6,153.8 
			451.1,162.1 506.3,252.4 		"/>
		<polygon class="st0" points="585,206.7 563.5,164 582.7,154.3 604.3,197 621.5,188.3 573.8,93.8 556.6,102.5 576.5,142 
			557.3,151.8 537.3,112.2 520.2,120.9 567.9,215.4 		"/>
		<polygon class="st0" points="730.1,146.1 692.5,47.1 674.3,53.6 684.3,127.9 645.4,64 626.6,70.8 660.6,171 674.3,166.1 
			650.7,96.1 690,160.5 701,156.5 690.2,82.2 716.6,150.9 		"/>
		<path class="st0" d="M755.4,139.3l-2.1-24.7l17.8-4.7l10.3,22.5l17.3-4.6L751,30.9l-20,5.3l6.7,107.7L755.4,139.3z M765.9,98.5
			l-13.9,3.7l-4.5-44.8L765.9,98.5z"/>
		<path class="st0" d="M797.5,92.4c1.4,7.3,3.4,13.5,6.1,18.5c2.8,5,6.5,8.5,11,10.7c4.6,2.2,10.3,2.6,17.1,1.3l0,0
			c4.8-0.9,8.4-2.7,10.7-5.3c2.4-2.8,4-6,4.7-9.6l3.3,10l12.2-2.3L852.9,63l-28.3,5.2l2.2,11.9l11.2-2.1l1.8,9.8
			c0.7,3.8,1,7.1,0.8,10c-0.1,2.8-0.8,5.2-2.1,7c-1.3,1.9-3.6,3.1-6.6,3.6c-3,0.6-5.4,0.3-7.3-0.8c-1.9-1.2-3.4-3-4.5-5.5
			c-1.1-2.5-2-5.6-2.6-9.2l-8.1-43.6c-0.6-3.2-1-6.1-1.1-8.8c-0.1-2.7,0.5-5,1.6-7c1.2-1.9,3.5-3.2,6.9-3.8c3.2-0.6,5.6-0.4,7.2,0.7
			c1.7,0.9,3,2.6,3.8,4.9c1,2.3,1.7,5.1,2.4,8.5l1.1,5.9l18.1-3.4l-1-5.4c-1.2-6.4-3.1-11.7-5.9-15.8c-2.6-4.2-6.3-7.1-10.9-8.7
			c-4.6-1.6-10.5-1.8-17.6-0.5c-7.6,1.4-13.3,4-17.2,7.7c-3.8,3.6-6,8.3-6.7,14c-0.7,5.7-0.4,12.3,1,19.8L797.5,92.4z"/>
		<polygon class="st0" points="891.2,112.4 884.6,49.5 917,109.6 929.7,108.3 918.6,3 902.7,4.7 909.1,64.7 877.1,7.4 863.8,8.8 
			874.8,114.1 		"/>
		<path class="st0" d="M999.4,0l-18.7,0.5l1.9,73.8c0.1,3.3-0.1,6.5-0.5,9.4c-0.4,2.9-1.3,5.3-2.8,7.1c-1.4,1.7-3.9,2.7-7.2,2.8
			c-3.2,0.1-5.7-0.7-7.4-2.4c-1.6-1.8-2.7-4.1-3.2-7c-0.5-2.9-0.8-6.1-0.9-9.4l-1.9-73.8l-18.8,0.5l1.8,71.6c0.2,7.4,1.2,13.7,3,19
			c1.8,5.3,4.9,9.3,9.3,12.1c4.4,2.7,10.6,4,18.4,3.8l0,0c7.9-0.2,14-1.8,18.2-4.8c4.3-3,7.2-7.2,8.7-12.5c1.5-5.4,2.2-11.7,2-19.1
			L999.4,0z"/>
		<polygon class="st0" points="1074,109.5 1088.3,110.4 1093,4.7 1073.7,3.4 1053.5,75.6 1043.1,1.5 1023.1,0.2 1014.6,105.8 
			1029.1,106.7 1035.2,33.1 1045.8,107.7 1057.4,108.5 1077,36 		"/>
		<polygon class="st0" points="1159.3,46.4 1160.2,121.7 1171.6,124 1200.4,54.6 1187.9,127.2 1202,129.9 1220.3,25.6 1201.3,21.9 
			1171.9,90.9 1171.2,16.1 1151.6,12.2 1129.5,115.8 1143.8,118.5 		"/>
		<path class="st0" d="M1227.2,136.9l10.8-22.3l17.7,5l-2.6,24.6l17.2,4.9l8.5-107.6l-19.9-5.6l-49.3,96.1L1227.2,136.9z
			 M1262.3,62.6l-5.2,44.7l-13.8-3.9L1262.3,62.6z"/>
		<path class="st0" d="M1295.6,158.3l16.7-45.5l8.3,3.1l-4.7,49.9l18.2,6.7l4.1-54c3.6-0.1,6.6-0.9,9.1-2.5c2.6-1.6,4.9-3.9,6.8-6.8
			c1.9-2.9,3.6-6.4,5.1-10.4c2.4-6.6,3.1-12.3,2.1-17.1c-1-4.7-3.5-8.7-7.6-12c-4-3.3-9.3-6.2-16-8.7l-23.8-8.7l-36.5,99.3
			L1295.6,158.3z M1327.6,71.4l6.6,2.4c5.2,1.9,8.2,4.4,9,7.6c1,3.1,0.6,7.2-1.3,12.2c-1.3,3.5-2.8,6.3-4.6,8.2
			c-1.7,1.8-3.8,2.9-6.3,3.2c-2.4,0.2-5.4-0.3-8.9-1.6l-5.6-2.1L1327.6,71.4z"/>
		
			<rect x="1320.8" y="122.8" transform="matrix(0.3994 -0.9168 0.9168 0.3994 703.737 1338.9)" class="st0" width="105.8" height="19.1"/>
		<polygon class="st0" points="1388.9,197.6 1417.4,141.1 1411.9,209.3 1423.4,215 1471.2,120.6 1456.9,113.4 1429.7,167.3 
			1434,101.8 1422,95.7 1374.2,190.1 		"/>
		<polygon class="st0" points="1473.6,244.7 1480.4,233.3 1458.6,220.3 1476.6,190.2 1493.5,200.3 1500.4,188.8 1483.5,178.7 
			1499,152.5 1520.6,165.4 1527.6,153.7 1489.4,130.9 1435.2,221.8 		"/>
		<path class="st0" d="M1559.1,306c4.5-4.6,8.3-10.2,11.5-16.9l0.5-1l-1-0.5l-7.6-3.9l-0.6,0.9c-3.4,5.9-7.5,11.1-12.2,15.5
			l-1.2,1.1l9.9,5.5L1559.1,306z"/>
		<path class="st0" d="M1572.9,312.9c3.5-6,6.4-12.2,8.4-18.6l0.3-1l-1-0.4l-8.3-3l-0.4,1c-2.3,5.6-5.3,11.3-8.7,17.3l-0.6,1.1
			l9.8,4.6L1572.9,312.9z"/>
		<path class="st0" d="M1559.1,285.2c0.7,0,1.4-0.1,1.8-0.8c0.5-0.6,0.5-1.4,0.3-2l0-0.1c-0.2-0.6-0.5-1.2-0.9-1.9l-0.1,0l-6-6.9
			l-0.8,0.7c-7.4,6.2-14.2,10.8-20.5,14.1l-1.2,0.6l0.8,1l6,8.3l0.9-0.5c5.8-3.2,11.8-7.5,18-12.7
			C1558,285,1558.6,285.3,1559.1,285.2z"/>
		<path class="st0" d="M1513.9,250.7l-3.6,9.9c-0.3,0.8-0.5,1.6-0.6,2.3c0,0.7,0.1,1.4,0.7,1.9c0.6,0.5,1.4,0.6,2.1,0.5
			c0.5,0,1.2-0.4,1.8-0.6l30.9,13.7l6.6-8.4l-10.7-5.3l14.5-18.4l9.6,7.6l7.2-9.1l-9.6-7.6l14.9-18.9l10.8,8.5l0.7-0.9l6.5-8.2
			l-31.7-25.1l-7.2,9.1l11.5,9.1l-14.9,18.9l-9.6-7.6l-7.2,9.1l9.6,7.6l-16,20.2L1513.9,250.7z"/>
		<path class="st0" d="M1575.4,314.4l9.8,3.8l0.4-0.9c2.7-5.1,4.7-10.8,5.9-17l0.2-1l-1-0.3l-8-2.7l-0.3,1.2
			c-1.4,5.4-3.6,10.7-6.4,15.8L1575.4,314.4z"/>
		<path class="st0" d="M1564.3,278.6l1.8-2.2l34.5,27.4l-17.1,18.5c-0.9,0.9-1.7,1.3-2.4,1.4c-0.7,0-1.4-0.3-2.2-0.8l-7.2-5.7
			l-5.3,10.5l8.4,6.7c2.5,2,5.5,2.6,8.5,1.7c3-0.9,6.1-3.1,9.3-6.5l24.9-27.4l-23.4-18.6l5.8-7.4L1616,289l6.3-7.9l-16.1-12.7
			l5.6-7.1l16.1,12.8l6.2-7.9l-16.1-12.7l5-6.3l19.5,15.5l7.2-9.1l-48.6-38.5l-45.2,57L1564.3,278.6z M1573.3,267.6l5.8-7.4
			l12.4,9.9l-5.8,7.4L1573.3,267.6z M1585.4,252.1l5.6-7l12.4,9.8l-5.6,7.1L1585.4,252.1z M1614.7,240.7l-5,6.2l-12.4-9.8l5-6.2
			L1614.7,240.7z"/>
		<path class="st0" d="M1619.7,319.4l-0.8,0l-2.8,13.3l1.5-0.1c8.3-0.7,15.9-3.1,23.2-6l-36.6,35l8.3,8.7l37.7-36.1
			c-0.1,3.1-0.3,6.2-1.3,9.8l-0.4,1.7l7.2-1.1l-3.2,6.7l1.2,0.4c2.6,1,4.1,0.9,6.5,1.7l-33.1,31.6l8.3,8.7l5-4.7l18.4,19.3l-3.5,3.3
			l0.8,0.9l7.6,7.9l32-30.6c0.9,2.3,2,4.7,3.1,7.1l0.4,0.9l1-0.4l11.7-4.2l-0.6-1.2c-5.5-10.7-9-20.8-10.9-30.3
			c10-0.4,19.7-1.7,28.9-4.5l4.1,0.9l-0.6-12.4l-3.8,0.2l-16.1-16.9l6.6-3.1c0.7,0.5,1.3,1,2.2,0.8c0.6,0,1.1-0.6,1.3-1.1
			c0.2-0.5,0.3-1,0.3-1.5l0-0.3l-6.1-10.4l-1,0.6c-10,6.2-21.5,7.3-33.1,8.3l5.1-4.9l-9.8-10.3l13-12.4c0.4,0,0.8,0.3,1.1,0.3
			c0.6,0,1.1-0.4,1.5-0.8c0.4-0.5,0.4-1.2,0.4-1.7c-0.1-0.6-0.3-1.1-0.6-1.7l-0.1,0l-7.3-7.7l-16.3,15.5l-11.8-12.4l-8.3,8l11,11.6
			C1649.8,313.1,1636.3,317.8,1619.7,319.4z M1716.4,347.4c-5.8,1.7-11.3,2.6-16.4,2.5c0.4-5.4,1.7-10.7,3.5-16L1716.4,347.4z
			 M1666,400.9l-18.4-19.2l14.6-14l18.3,19.2L1666,400.9z M1672.6,324.9l-1.1,0l-0.7,13.1l1.2-0.1c8.7,0,14.5-1,19-2.5
			c-1.5,4.8-2.5,9.3-2.9,13.3c-7.1-0.5-15.9-3.2-26.3-8.4c0.6-5,0.2-10.4-1.2-16.4l9.5-9l8,8.4
			C1676.1,323.6,1674.6,325,1672.6,324.9z M1663,354.2c9.2,3,18.4,6,25.2,6.5c0.8,8.4,2.9,17.2,6.4,26.5L1663,354.2z M1699.1,322.9
			c-7,2.1-14.4,3.2-22.1,3.2c0.9-0.4,1.8-0.8,2.8-0.8l0.1,0C1686.5,325.1,1692.9,324.4,1699.1,322.9z"/>
		<path class="st0" d="M1746.4,395.3l-66.5,48.1l7.1,9.8l57.1-41.2l7.5,10.4l-6.8,12.6l-7.6-10.6l-8.2,6l14,19.4l-7.3,5.3l-15.1-21
			l-8.3,5.9l15.2,21l-20.6,14.9l7.1,9.8l20.7-14.9l15.1,21l8.2-5.9l-15.2-21l7.3-5.3l14.4,19.8l8.2-5.9l-8.4-11.7l14.6-1.8l7.5,10.4
			l-46.7,33.7c-0.4,0.3-0.5,0.3-0.6,0.3c-0.1,0-0.3,0-0.6-0.5l-6-8.3l-8,8.8l7.4,10.2c1.4,2,3.1,3.3,5.1,3.6c2,0.3,4-0.5,6-1.8
			l59.7-43.1l-24.7-34.1l6.9-4.9l30.1,41.6l9.4-7l-30.1-41.6l6.2-4.5c0.4,0,0.9,0.3,1.3,0.3c0.6,0,1.3-0.1,1.8-0.6
			c0.5-0.5,0.6-1.3,0.5-1.8c-0.1-0.6-0.3-1.2-0.7-1.8l-0.1,0l-0.1,0l-6.1-8.4l-10,7.2l-29.8-41.3l-9.4,6.8l29.8,41.2l-6.9,5
			L1746.4,395.3z M1752.2,445.1l6.8-12.6l11.9,16.5l-13.8,2.8L1752.2,445.1z"/>
		<polygon class="st0" points="1811.4,515.2 1801.8,499.2 1785.8,508.9 1786.4,509.8 1795.4,524.8 		"/>
		<path class="st0" d="M1802.4,561.7l3.1-1.5l30.6,61.3l-24,9.4c-1.1,0.4-1.9,0.4-2.4,0.4c-0.5-0.3-0.9-0.4-1.2-1l-6.1-12.3l-9,7.9
			l6.5,13.1c1.4,2.7,3.5,4.5,6.3,5c2.8,0.6,6.1,0.1,9.8-1.4l36.1-14.7l-0.5-1.1l-18.9-37.9l7.6-3.8l13.8,27.5l10.3-5.1l-13.8-27.6
			l6.3-3.1l13.5,27.1l10.3-5.1l-13.5-27.2l6.3-3.1l16.4,32.8l10.4-5.3l-38.7-77.3l-64.6,32.3L1802.4,561.7z M1834.8,574.1l-7.6,3.8
			l-11.4-22.9l7.6-3.8L1834.8,574.1z M1851.4,565.8l-6.3,3.1l-11.4-22.9l6.3-3.1L1851.4,565.8z M1856.7,534.6l11.4,22.9l-6.3,3.1
			l-11.5-22.9L1856.7,534.6z"/>
		<path class="st0" d="M1800.1,607.8l0.8-0.6c6.2-4.6,11-9.6,14.3-15l0.4-0.7l-7.7-8.8l-0.9,1c-4,4.9-8.9,9.5-14.7,13.8l-1.1,0.8
			l0.9,0.9L1800.1,607.8z"/>
		<path class="st0" d="M1805,615.3l-0.9,0.8l0.8,0.9l8.7,8.9l0.8-0.8c5.2-5.2,9.3-10.7,12.3-16.7l0.3-0.8l-8.9-8.3l-0.7,1.2
			C1814.1,606.1,1810,611,1805,615.3z"/>
		<path class="st0" d="M1769.4,553l-1.3-0.3l0,13.3l1,0c8.6,0.9,17.7-0.3,27.2-3.5l1-0.2l-0.2-1l-2.5-11l-1.2,0.4
			C1784.9,553,1776.9,553.8,1769.4,553z"/>
		<path class="st0" d="M1786.1,589c7.2-3.2,13.4-7.2,18.4-12l0.7-0.7l-0.5-0.8l-5.9-9.4l-1,0.8c-4.9,3.9-11.3,7.6-19.3,11.3
			l-1.3,0.6l8,10.6L1786.1,589z"/>
		<path class="st0" d="M1885.6,641l6.3,18.7c-16.9,1.5-33.5-1.1-50-8.8l-1-0.5l-5.5,12.9l1,0.5c9,4.2,17.9,5.8,26.8,6.4l-44.2,15
			l3.9,11.4l47.4-16.1c-1.9,5.7-3.8,10.8-5.8,14.4l-0.7,1.4l1.5,0.3l13.2,2.8l0.3-0.8c2.7-6,4.3-13.7,5.1-22.5l12.3-4.1l5.8,17.2
			l10.9-3.7l-5.8-17.1l18.4-6.3c0.4,0.3,0.8,0.6,1.2,0.7c0.6,0.3,1.2,0.3,1.9-0.1c0.6-0.3,0.9-1,1-1.6l0,0c0.1-0.6,0-1.1-0.1-1.9
			l-3.4-10l-22.7,7.7l-6.6-19.5L1885.6,641z"/>
		<path class="st0" d="M1913.5,687.4l-10.9,3.7l5.7,16.8c-15.8,1-33.5-3.1-53.6-13.6l-1-0.5l-7,12.3l1.1,0.5
			c12.8,6.3,24.1,9.6,34.6,11.1l-46.5,15.7l3.9,11.5l47.5-16c-7.5,7.8-14.3,17.2-19.9,29.4l-0.6,1.2l1.3,0.3l13.4,3.3l0.3-0.9
			c6.6-17.4,17.2-30.8,31-41.1l7.3,21.8l11-3.7l-7.7-22.7l18.4-6.2c0.4,0.3,0.8,0.6,1.1,0.7c0.6,0.3,1.2,0.3,1.9-0.1
			c0.6-0.3,0.9-1.1,1-1.7l0,0c0.1-0.6,0-1.1-0.1-1.9l-3.4-10l-22.7,7.7L1913.5,687.4z"/>
	</g>
	<g id="g5299">
		<path id="path5301" class="st0" d="M995.7,175.4c-454.1,0-822.4,368.3-822.4,822.4s368.3,822.4,822.4,822.4
			c454.1,0,822.4-368.3,822.4-822.4S1449.8,175.4,995.7,175.4z"/>
	</g>
	<g id="g5305">
		<path id="path5307" class="st1" d="M478.3,626.6V1224L737,1373.1V1074l258.7,149.1l258.7-149.1v298.2l258.7-149.1V626.6
			L995.7,925.7L478.3,626.6z M866.3,1297.6v149.1l129.3,74.6l129.4-74.6v-149.1l-129.4,74.6L866.3,1297.6z"/>
	</g>
</g>
</svg>
